{
	"asset":{
		"generator":"Khronos glTF Blender I/O v5.1.19",
		"version":"2.0"
	},
	"scene":0,
	"scenes":[
		{
			"name":"Scene",
			"nodes":[
				0
			]
		}
	],
	"nodes":[
		{
			"mesh":0,
			"name":"knight",
			"translation":[
				0,
				0.9300000071525574,
				0
			]
		}
	],
	"materials":[
		{
			"emissiveFactor":[
				1,
				1,
				1
			],
			"emissiveTexture":{
				"index":0
			},
			"name":"Knight",
			"pbrMetallicRoughness":{
				"baseColorFactor":[
					0,
					0,
					0,
					1
				]
			}
		}
	],
	"meshes":[
		{
			"name":"Cube",
			"primitives":[
				{
					"attributes":{
						"POSITION":0,
						"NORMAL":1,
						"TEXCOORD_0":2
					},
					"indices":3,
					"material":0
				}
			]
		}
	],
	"textures":[
		{
			"sampler":0,
			"source":0
		}
	],
	"images":[
		{
			"mimeType":"image/png",
			"name":"Knight_BaseColor",
			"uri":"Knight_BaseColor.png"
		}
	],
	"accessors":[
		{
			"bufferView":0,
			"componentType":5126,
			"count":920,
			"max":[
				0.32195720076560974,
				0.9565015435218811,
				0.21637721359729767
			],
			"min":[
				-0.33147555589675903,
				-0.9047830700874329,
				-0.17112737894058228
			],
			"type":"VEC3"
		},
		{
			"bufferView":1,
			"componentType":5126,
			"count":920,
			"type":"VEC3"
		},
		{
			"bufferView":2,
			"componentType":5126,
			"count":920,
			"type":"VEC2"
		},
		{
			"bufferView":3,
			"componentType":5123,
			"count":1338,
			"type":"SCALAR"
		}
	],
	"bufferViews":[
		{
			"buffer":0,
			"byteLength":11040,
			"byteOffset":0,
			"target":34962
		},
		{
			"buffer":0,
			"byteLength":11040,
			"byteOffset":11040,
			"target":34962
		},
		{
			"buffer":0,
			"byteLength":7360,
			"byteOffset":22080,
			"target":34962
		},
		{
			"buffer":0,
			"byteLength":2676,
			"byteOffset":29440,
			"target":34963
		}
	],
	"samplers":[
		{
			"magFilter":9728,
			"minFilter":9984
		}
	],
	"buffers":[
		{
			"byteLength":32116,
			"uri":"knight.bin"
		}
	]
}
